<svg width="512" height="512" viewBox="0 0 512 512" fill="none" xmlns="http://www.w3.org/2000/svg">
<g filter="url(#filter0_i_501_3)">
<path fill-rule="evenodd" clip-rule="evenodd" d="M431.022 413.59C518.062 316.929 510.254 168.012 413.594 80.9759C316.929 -6.05986 168.012 1.7445 80.9759 98.4078C-6.05985 195.071 1.74449 343.988 98.4078 431.024C195.071 518.058 343.988 510.255 431.022 413.59ZM446.244 427.297C540.846 322.228 532.367 160.361 427.295 65.7568C322.227 -28.8478 160.361 -20.3645 65.7568 84.7042C-28.8478 189.772 -20.3645 351.639 84.7042 446.246C189.772 540.847 351.639 532.363 446.244 427.297Z" fill="#009F8E"/>
<path d="M63.6614 225.4C67.6816 220.935 72.7867 216.291 78.9762 211.469C85.0382 206.533 89.6324 203.739 92.7586 203.089C93.0126 207.938 93.5604 211.434 94.4021 213.578C95.1292 215.849 96.3856 217.789 98.1715 219.398C104.04 224.681 119.051 228.149 143.205 229.8C167.244 231.579 189.881 227.476 211.115 217.489L203.213 122.364C202.144 106.618 202.3 95.6697 203.679 89.5201C204.931 83.2553 207.51 77.9541 211.415 73.6165C214.746 69.9168 221.676 66.4541 232.203 63.2286C242.616 60.13 252.429 58.3395 261.641 57.8567C270.739 57.5014 276.691 58.5873 279.498 61.1145C282.177 63.5266 283.076 66.7614 282.194 70.8189C280.598 75.1571 279.315 81.9702 278.343 91.2593C277.243 100.433 276.948 109.869 277.456 119.567L280.915 314.295C293.47 314.973 303.404 314.331 310.716 312.368C317.9 310.29 324.593 305.806 330.796 298.917C336.655 292.411 340.848 284.291 343.377 274.555C345.778 264.705 346.859 251.703 346.62 235.549C346.496 219.268 347.468 206.515 349.537 197.29C351.607 188.065 355.168 180.646 360.223 175.033C366.081 168.527 373.278 164.381 381.815 162.597L458.742 231.861L444.267 247.935L423.793 229.499C418.56 224.79 413.246 225.433 407.849 231.429C404.977 234.618 402.972 239.281 401.836 245.419C400.571 251.441 399.108 258.325 397.448 266.069C395.66 273.699 393.049 281.859 389.614 290.547C386.052 299.121 380.538 307.554 373.072 315.846C363.883 326.052 352.57 332.844 339.133 336.222C325.696 339.6 309.434 340.088 290.346 337.685L281.178 336.707L283.636 383.619C284.043 391.377 283.831 397.769 283 402.798C282.17 407.825 280.089 412.188 276.758 415.889C272.738 420.354 266.242 423.974 257.272 426.754C248.058 429.544 238.597 431.075 228.886 431.341C219.049 431.49 212.854 430.42 210.303 428.121C208.006 426.053 207.05 422.883 207.433 418.608C209.03 409.653 210.283 398.768 211.192 385.957C211.973 373.031 212.276 361.407 212.1 351.085L210.955 249.223C183.188 255.175 155.634 254.736 128.291 247.903C134.81 254.004 137.392 261.526 136.038 270.47C134.555 279.3 129.047 289.009 119.513 299.597C113.655 306.104 107.013 310.402 99.5861 312.493C92.0316 314.469 86.4047 313.792 82.7056 310.461C81.9401 309.771 81.8377 308.987 82.3994 308.106C82.8464 307.353 84.046 305.893 85.9987 303.724C91.2825 297.856 90.0338 291.418 82.2519 284.411L63.9384 268.961C57.0495 262.759 53.6442 255.766 53.7225 247.982C53.8008 240.198 57.114 232.671 63.6614 225.4Z" fill="#009F8E"/>
</g>
<defs>
<filter id="filter0_i_501_3" x="0" y="0" width="512" height="516" filterUnits="userSpaceOnUse" color-interpolation-filters="sRGB">
<feFlood flood-opacity="0" result="BackgroundImageFix"/>
<feBlend mode="normal" in="SourceGraphic" in2="BackgroundImageFix" result="shape"/>
<feColorMatrix in="SourceAlpha" type="matrix" values="0 0 0 0 0 0 0 0 0 0 0 0 0 0 0 0 0 0 127 0" result="hardAlpha"/>
<feOffset dy="4"/>
<feGaussianBlur stdDeviation="2"/>
<feComposite in2="hardAlpha" operator="arithmetic" k2="-1" k3="1"/>
<feColorMatrix type="matrix" values="0 0 0 0 0.0658333 0 0 0 0 0.9875 0 0 0 0 0.888957 0 0 0 0.49 0"/>
<feBlend mode="normal" in2="shape" result="effect1_innerShadow_501_3"/>
</filter>
</defs>
</svg>
