<svg width="1007" height="159" viewBox="0 0 1007 159" fill="none" xmlns="http://www.w3.org/2000/svg">
<rect x="0.5" y="0.5" width="1006" height="158" stroke="#0094FF"/>
<mask id="path-2-outside-1_1995_20" maskUnits="userSpaceOnUse" x="109" y="36" width="791" height="90" fill="black">
<rect fill="white" x="109" y="36" width="791" height="90"/>
<path d="M152.093 53.33C159.473 53.33 165.173 55.7 169.193 60.44C173.273 65.18 175.313 72.95 175.313 83.75V104H154.613V84.02C154.613 80.24 154.403 77.15 153.983 74.75C153.563 72.35 152.543 70.34 150.923 68.72C149.303 67.1 146.783 66.29 143.363 66.29C139.763 66.29 137.093 67.07 135.353 68.63C133.613 70.13 132.503 72.08 132.023 74.48C131.543 76.88 131.303 80.03 131.303 83.93V104H110.603V54.95H131.303V61.07C135.863 55.91 142.793 53.33 152.093 53.33ZM213.709 52.88C220.189 52.88 226.039 54.02 231.259 56.3C236.479 58.58 240.559 61.76 243.499 65.84C246.439 69.86 247.909 74.39 247.909 79.43C247.909 84.41 246.409 88.94 243.409 93.02C240.469 97.04 236.389 100.19 231.169 102.47C226.009 104.75 220.189 105.89 213.709 105.89C207.469 105.89 201.619 104.75 196.159 102.47C190.699 100.13 186.319 96.95 183.019 92.93C179.779 88.85 178.159 84.35 178.159 79.43C178.159 74.45 179.779 69.95 183.019 65.93C186.319 61.85 190.669 58.67 196.069 56.39C201.529 54.05 207.409 52.88 213.709 52.88ZM213.709 93.02C216.109 93.02 218.329 92.51 220.369 91.49C222.469 90.47 224.149 88.94 225.409 86.9C226.669 84.8 227.299 82.31 227.299 79.43C227.299 76.55 226.669 74.09 225.409 72.05C224.149 69.95 222.469 68.39 220.369 67.37C218.329 66.35 216.109 65.84 213.709 65.84C211.369 65.84 209.059 66.38 206.779 67.46C204.559 68.48 202.729 70.01 201.289 72.05C199.849 74.09 199.129 76.55 199.129 79.43C199.129 82.31 199.849 84.77 201.289 86.81C202.729 88.85 204.559 90.41 206.779 91.49C209.059 92.51 211.369 93.02 213.709 93.02ZM334.208 53.33C339.068 53.33 342.968 54.32 345.908 56.3C348.908 58.28 351.128 61.49 352.568 65.93C354.008 70.31 354.728 76.25 354.728 83.75V104H334.028V84.02C334.028 80.42 333.788 77.36 333.308 74.84C332.888 72.32 331.898 70.25 330.338 68.63C328.838 67.01 326.588 66.2 323.588 66.2C320.648 66.2 318.428 67.01 316.928 68.63C315.488 70.19 314.528 72.2 314.048 74.66C313.628 77.06 313.418 80.09 313.418 83.75V104H292.718V84.02C292.718 80.36 292.508 77.3 292.088 74.84C291.668 72.32 290.708 70.25 289.208 68.63C287.708 67.01 285.458 66.2 282.458 66.2C279.278 66.2 276.938 67.01 275.438 68.63C273.938 70.25 272.978 72.35 272.558 74.93C272.198 77.45 272.018 80.84 272.018 85.1V104H251.228V54.95H269.768L271.298 60.8C273.578 58.22 276.488 56.33 280.028 55.13C283.628 53.93 287.948 53.33 292.988 53.33C297.368 53.33 300.968 54.14 303.788 55.76C306.608 57.38 308.798 60.02 310.358 63.68C312.398 60.02 315.338 57.38 319.178 55.76C323.018 54.14 328.028 53.33 334.208 53.33ZM392.003 52.79C400.583 52.79 408.293 54.23 415.133 57.11C421.973 59.99 425.393 65.06 425.393 72.32V104H405.773L404.243 97.61V97.16C402.743 99.86 399.563 101.84 394.703 103.1C389.903 104.36 384.653 104.99 378.953 104.99C374.393 104.99 369.833 104 365.273 102.02C360.713 99.98 358.433 95.75 358.433 89.33C358.433 79.19 365.063 74.12 378.323 74.12C386.843 74.12 392.783 74.06 396.143 73.94C399.503 73.76 401.723 73.46 402.803 73.04C403.883 72.56 404.453 71.72 404.513 70.52V69.35C404.453 67.37 403.133 65.93 400.553 65.03C398.033 64.07 395.153 63.59 391.913 63.59C388.553 63.65 385.673 64.28 383.273 65.48C380.933 66.68 379.763 68.51 379.763 70.97H358.973C358.973 66.41 360.773 62.78 364.373 60.08C367.973 57.32 372.263 55.43 377.243 54.41C382.283 53.33 387.203 52.79 392.003 52.79ZM390.653 91.85C395.093 91.85 398.453 90.86 400.733 88.88C403.013 86.9 404.243 84.38 404.423 81.32V80.06C402.143 81.02 398.513 81.5 393.533 81.5C388.373 81.5 384.743 81.86 382.643 82.58C380.603 83.3 379.553 84.62 379.493 86.54C379.673 88.34 380.603 89.69 382.283 90.59C384.023 91.43 386.813 91.85 390.653 91.85ZM476.165 37.4H496.865V103.82H477.965L476.885 97.97C471.785 102.89 463.805 105.23 452.945 104.99C448.325 104.99 444.215 103.85 440.615 101.57C437.075 99.23 434.285 96.08 432.245 92.12C430.205 88.1 429.155 83.63 429.095 78.71V78.44V78.17C429.215 73.91 430.265 69.86 432.245 66.02C434.225 62.18 437.015 59.09 440.615 56.75C444.215 54.35 448.325 53.15 452.945 53.15C463.325 53.15 471.065 55.49 476.165 60.17V37.4ZM463.385 92.84C465.785 92.84 467.945 92.24 469.865 91.04C471.845 89.78 473.375 88.13 474.455 86.09C475.595 84.05 476.165 81.86 476.165 79.52V79.25C476.165 75.05 474.965 71.69 472.565 69.17C470.225 66.65 467.165 65.39 463.385 65.39C459.125 65.39 455.825 66.71 453.485 69.35C451.205 71.93 450.035 75.02 449.975 78.62C450.035 82.76 451.205 86.18 453.485 88.88C455.765 91.52 459.065 92.84 463.385 92.84ZM632.68 80.6C632.56 84.86 631.48 88.91 629.44 92.75C627.46 96.59 624.67 99.71 621.07 102.11C617.47 104.45 613.39 105.62 608.83 105.62C598.45 105.62 590.71 103.28 585.61 98.6V121.1H564.91V54.95H583.9L585.07 61.25C590.11 56.09 598.03 53.63 608.83 53.87C613.45 53.87 617.53 55.01 621.07 57.29C624.67 59.57 627.49 62.69 629.53 66.65C631.57 70.61 632.62 75.05 632.68 79.97V80.24V80.6ZM598.48 93.38C602.68 93.38 605.92 92.09 608.2 89.51C610.54 86.87 611.77 83.75 611.89 80.15C611.77 76.01 610.57 72.62 608.29 69.98C606.07 67.28 602.8 65.93 598.48 65.93C596.02 65.93 593.8 66.56 591.82 67.82C589.9 69.02 588.37 70.67 587.23 72.77C586.15 74.81 585.61 77 585.61 79.34V79.52C585.61 83.72 586.78 87.08 589.12 89.6C591.52 92.12 594.64 93.38 598.48 93.38ZM657.06 63.5C661.86 58.22 669.45 55.04 679.83 53.96V69.62H667.86C664.14 69.62 661.44 71.03 659.76 73.85C658.08 76.61 657.24 80.24 657.24 84.74V104H636.54V54.95H655.35L657.06 63.5ZM718.289 52.88C724.769 52.88 730.619 54.02 735.839 56.3C741.059 58.58 745.139 61.76 748.079 65.84C751.019 69.86 752.489 74.39 752.489 79.43C752.489 84.41 750.989 88.94 747.989 93.02C745.049 97.04 740.969 100.19 735.749 102.47C730.589 104.75 724.769 105.89 718.289 105.89C712.049 105.89 706.199 104.75 700.739 102.47C695.279 100.13 690.899 96.95 687.599 92.93C684.359 88.85 682.739 84.35 682.739 79.43C682.739 74.45 684.359 69.95 687.599 65.93C690.899 61.85 695.249 58.67 700.649 56.39C706.109 54.05 711.989 52.88 718.289 52.88ZM718.289 93.02C720.689 93.02 722.909 92.51 724.949 91.49C727.049 90.47 728.729 88.94 729.989 86.9C731.249 84.8 731.879 82.31 731.879 79.43C731.879 76.55 731.249 74.09 729.989 72.05C728.729 69.95 727.049 68.39 724.949 67.37C722.909 66.35 720.689 65.84 718.289 65.84C715.949 65.84 713.639 66.38 711.359 67.46C709.139 68.48 707.309 70.01 705.869 72.05C704.429 74.09 703.709 76.55 703.709 79.43C703.709 82.31 704.429 84.77 705.869 86.81C707.309 88.85 709.139 90.41 711.359 91.49C713.639 92.51 715.949 93.02 718.289 93.02ZM797.37 54.95H820.86L798.72 79.7L820.86 104H797.37L783.42 88.79L769.38 104H745.89L768.12 79.7L745.89 54.95H769.38L783.42 70.25L797.37 54.95ZM898.297 54.95L868.057 115.07C866.077 119.03 862.237 121.58 856.537 122.72C850.897 123.86 844.537 124.43 837.457 124.43V107.96C840.877 107.96 843.247 107.75 844.567 107.33C845.887 106.91 846.547 106.31 846.547 105.53C846.547 105.29 846.427 104.87 846.187 104.27L820.897 54.95H843.037L859.777 91.22L876.157 54.95H898.297Z"/>
<path d="M499.38 118.22V105.89H562.38V118.22H499.38Z"/>
</mask>
<path d="M152.093 53.33C159.473 53.33 165.173 55.7 169.193 60.44C173.273 65.18 175.313 72.95 175.313 83.75V104H154.613V84.02C154.613 80.24 154.403 77.15 153.983 74.75C153.563 72.35 152.543 70.34 150.923 68.72C149.303 67.1 146.783 66.29 143.363 66.29C139.763 66.29 137.093 67.07 135.353 68.63C133.613 70.13 132.503 72.08 132.023 74.48C131.543 76.88 131.303 80.03 131.303 83.93V104H110.603V54.95H131.303V61.07C135.863 55.91 142.793 53.33 152.093 53.33ZM213.709 52.88C220.189 52.88 226.039 54.02 231.259 56.3C236.479 58.58 240.559 61.76 243.499 65.84C246.439 69.86 247.909 74.39 247.909 79.43C247.909 84.41 246.409 88.94 243.409 93.02C240.469 97.04 236.389 100.19 231.169 102.47C226.009 104.75 220.189 105.89 213.709 105.89C207.469 105.89 201.619 104.75 196.159 102.47C190.699 100.13 186.319 96.95 183.019 92.93C179.779 88.85 178.159 84.35 178.159 79.43C178.159 74.45 179.779 69.95 183.019 65.93C186.319 61.85 190.669 58.67 196.069 56.39C201.529 54.05 207.409 52.88 213.709 52.88ZM213.709 93.02C216.109 93.02 218.329 92.51 220.369 91.49C222.469 90.47 224.149 88.94 225.409 86.9C226.669 84.8 227.299 82.31 227.299 79.43C227.299 76.55 226.669 74.09 225.409 72.05C224.149 69.95 222.469 68.39 220.369 67.37C218.329 66.35 216.109 65.84 213.709 65.84C211.369 65.84 209.059 66.38 206.779 67.46C204.559 68.48 202.729 70.01 201.289 72.05C199.849 74.09 199.129 76.55 199.129 79.43C199.129 82.31 199.849 84.77 201.289 86.81C202.729 88.85 204.559 90.41 206.779 91.49C209.059 92.51 211.369 93.02 213.709 93.02ZM334.208 53.33C339.068 53.33 342.968 54.32 345.908 56.3C348.908 58.28 351.128 61.49 352.568 65.93C354.008 70.31 354.728 76.25 354.728 83.75V104H334.028V84.02C334.028 80.42 333.788 77.36 333.308 74.84C332.888 72.32 331.898 70.25 330.338 68.63C328.838 67.01 326.588 66.2 323.588 66.2C320.648 66.2 318.428 67.01 316.928 68.63C315.488 70.19 314.528 72.2 314.048 74.66C313.628 77.06 313.418 80.09 313.418 83.75V104H292.718V84.02C292.718 80.36 292.508 77.3 292.088 74.84C291.668 72.32 290.708 70.25 289.208 68.63C287.708 67.01 285.458 66.2 282.458 66.2C279.278 66.2 276.938 67.01 275.438 68.63C273.938 70.25 272.978 72.35 272.558 74.93C272.198 77.45 272.018 80.84 272.018 85.1V104H251.228V54.95H269.768L271.298 60.8C273.578 58.22 276.488 56.33 280.028 55.13C283.628 53.93 287.948 53.33 292.988 53.33C297.368 53.33 300.968 54.14 303.788 55.76C306.608 57.38 308.798 60.02 310.358 63.68C312.398 60.02 315.338 57.38 319.178 55.76C323.018 54.14 328.028 53.33 334.208 53.33ZM392.003 52.79C400.583 52.79 408.293 54.23 415.133 57.11C421.973 59.99 425.393 65.06 425.393 72.32V104H405.773L404.243 97.61V97.16C402.743 99.86 399.563 101.84 394.703 103.1C389.903 104.36 384.653 104.99 378.953 104.99C374.393 104.99 369.833 104 365.273 102.02C360.713 99.98 358.433 95.75 358.433 89.33C358.433 79.19 365.063 74.12 378.323 74.12C386.843 74.12 392.783 74.06 396.143 73.94C399.503 73.76 401.723 73.46 402.803 73.04C403.883 72.56 404.453 71.72 404.513 70.52V69.35C404.453 67.37 403.133 65.93 400.553 65.03C398.033 64.07 395.153 63.59 391.913 63.59C388.553 63.65 385.673 64.28 383.273 65.48C380.933 66.68 379.763 68.51 379.763 70.97H358.973C358.973 66.41 360.773 62.78 364.373 60.08C367.973 57.32 372.263 55.43 377.243 54.41C382.283 53.33 387.203 52.79 392.003 52.79ZM390.653 91.85C395.093 91.85 398.453 90.86 400.733 88.88C403.013 86.9 404.243 84.38 404.423 81.32V80.06C402.143 81.02 398.513 81.5 393.533 81.5C388.373 81.5 384.743 81.86 382.643 82.58C380.603 83.3 379.553 84.62 379.493 86.54C379.673 88.34 380.603 89.69 382.283 90.59C384.023 91.43 386.813 91.85 390.653 91.85ZM476.165 37.4H496.865V103.82H477.965L476.885 97.97C471.785 102.89 463.805 105.23 452.945 104.99C448.325 104.99 444.215 103.85 440.615 101.57C437.075 99.23 434.285 96.08 432.245 92.12C430.205 88.1 429.155 83.63 429.095 78.71V78.44V78.17C429.215 73.91 430.265 69.86 432.245 66.02C434.225 62.18 437.015 59.09 440.615 56.75C444.215 54.35 448.325 53.15 452.945 53.15C463.325 53.15 471.065 55.49 476.165 60.17V37.4ZM463.385 92.84C465.785 92.84 467.945 92.24 469.865 91.04C471.845 89.78 473.375 88.13 474.455 86.09C475.595 84.05 476.165 81.86 476.165 79.52V79.25C476.165 75.05 474.965 71.69 472.565 69.17C470.225 66.65 467.165 65.39 463.385 65.39C459.125 65.39 455.825 66.71 453.485 69.35C451.205 71.93 450.035 75.02 449.975 78.62C450.035 82.76 451.205 86.18 453.485 88.88C455.765 91.52 459.065 92.84 463.385 92.84ZM632.68 80.6C632.56 84.86 631.48 88.91 629.44 92.75C627.46 96.59 624.67 99.71 621.07 102.11C617.47 104.45 613.39 105.62 608.83 105.62C598.45 105.62 590.71 103.28 585.61 98.6V121.1H564.91V54.95H583.9L585.07 61.25C590.11 56.09 598.03 53.63 608.83 53.87C613.45 53.87 617.53 55.01 621.07 57.29C624.67 59.57 627.49 62.69 629.53 66.65C631.57 70.61 632.62 75.05 632.68 79.97V80.24V80.6ZM598.48 93.38C602.68 93.38 605.92 92.09 608.2 89.51C610.54 86.87 611.77 83.75 611.89 80.15C611.77 76.01 610.57 72.62 608.29 69.98C606.07 67.28 602.8 65.93 598.48 65.93C596.02 65.93 593.8 66.56 591.82 67.82C589.9 69.02 588.37 70.67 587.23 72.77C586.15 74.81 585.61 77 585.61 79.34V79.52C585.61 83.72 586.78 87.08 589.12 89.6C591.52 92.12 594.64 93.38 598.48 93.38ZM657.06 63.5C661.86 58.22 669.45 55.04 679.83 53.96V69.62H667.86C664.14 69.62 661.44 71.03 659.76 73.85C658.08 76.61 657.24 80.24 657.24 84.74V104H636.54V54.95H655.35L657.06 63.5ZM718.289 52.88C724.769 52.88 730.619 54.02 735.839 56.3C741.059 58.58 745.139 61.76 748.079 65.84C751.019 69.86 752.489 74.39 752.489 79.43C752.489 84.41 750.989 88.94 747.989 93.02C745.049 97.04 740.969 100.19 735.749 102.47C730.589 104.75 724.769 105.89 718.289 105.89C712.049 105.89 706.199 104.75 700.739 102.47C695.279 100.13 690.899 96.95 687.599 92.93C684.359 88.85 682.739 84.35 682.739 79.43C682.739 74.45 684.359 69.95 687.599 65.93C690.899 61.85 695.249 58.67 700.649 56.39C706.109 54.05 711.989 52.88 718.289 52.88ZM718.289 93.02C720.689 93.02 722.909 92.51 724.949 91.49C727.049 90.47 728.729 88.94 729.989 86.9C731.249 84.8 731.879 82.31 731.879 79.43C731.879 76.55 731.249 74.09 729.989 72.05C728.729 69.95 727.049 68.39 724.949 67.37C722.909 66.35 720.689 65.84 718.289 65.84C715.949 65.84 713.639 66.38 711.359 67.46C709.139 68.48 707.309 70.01 705.869 72.05C704.429 74.09 703.709 76.55 703.709 79.43C703.709 82.31 704.429 84.77 705.869 86.81C707.309 88.85 709.139 90.41 711.359 91.49C713.639 92.51 715.949 93.02 718.289 93.02ZM797.37 54.95H820.86L798.72 79.7L820.86 104H797.37L783.42 88.79L769.38 104H745.89L768.12 79.7L745.89 54.95H769.38L783.42 70.25L797.37 54.95ZM898.297 54.95L868.057 115.07C866.077 119.03 862.237 121.58 856.537 122.72C850.897 123.86 844.537 124.43 837.457 124.43V107.96C840.877 107.96 843.247 107.75 844.567 107.33C845.887 106.91 846.547 106.31 846.547 105.53C846.547 105.29 846.427 104.87 846.187 104.27L820.897 54.95H843.037L859.777 91.22L876.157 54.95H898.297Z" fill="white"/>
<path d="M499.38 118.22V105.89H562.38V118.22H499.38Z" fill="#FF06F5"/>
<path d="M169.193 60.44L168.43 61.0868L168.435 61.0924L169.193 60.44ZM175.313 104V105H176.313V104H175.313ZM154.613 104H153.613V105H154.613V104ZM153.983 74.75L152.998 74.9224L152.998 74.9224L153.983 74.75ZM135.353 68.63L136.006 69.3874L136.013 69.3811L136.02 69.3746L135.353 68.63ZM132.023 74.48L131.042 74.2839L131.042 74.2839L132.023 74.48ZM131.303 104V105H132.303V104H131.303ZM110.603 104H109.603V105H110.603V104ZM110.603 54.95V53.95H109.603V54.95H110.603ZM131.303 54.95H132.303V53.95H131.303V54.95ZM131.303 61.07H130.303V63.7117L132.052 61.7322L131.303 61.07ZM152.093 54.33C159.24 54.33 164.636 56.6134 168.43 61.0868L169.956 59.7932C165.709 54.7866 159.706 52.33 152.093 52.33V54.33ZM168.435 61.0924C172.28 65.5589 174.313 73.0308 174.313 83.75H176.313C176.313 72.8692 174.266 64.8011 169.951 59.7876L168.435 61.0924ZM174.313 83.75V104H176.313V83.75H174.313ZM175.313 103H154.613V105H175.313V103ZM155.613 104V84.02H153.613V104H155.613ZM155.613 84.02C155.613 80.21 155.402 77.0566 154.968 74.5776L152.998 74.9224C153.404 77.2434 153.613 80.27 153.613 84.02H155.613ZM154.968 74.5776C154.515 71.9886 153.405 69.7878 151.63 68.0129L150.216 69.4271C151.681 70.8922 152.611 72.7114 152.998 74.9224L154.968 74.5776ZM151.63 68.0129C149.747 66.1303 146.919 65.29 143.363 65.29V67.29C146.647 67.29 148.858 68.0697 150.216 69.4271L151.63 68.0129ZM143.363 65.29C139.645 65.29 136.686 66.0918 134.685 67.8854L136.02 69.3746C137.5 68.0482 139.881 67.29 143.363 67.29V65.29ZM134.7 67.8726C132.78 69.5278 131.563 71.6808 131.042 74.2839L133.003 74.6761C133.443 72.4792 134.446 70.7322 136.006 69.3874L134.7 67.8726ZM131.042 74.2839C130.544 76.7748 130.303 79.998 130.303 83.93H132.303C132.303 80.062 132.542 76.9852 133.003 74.6761L131.042 74.2839ZM130.303 83.93V104H132.303V83.93H130.303ZM131.303 103H110.603V105H131.303V103ZM111.603 104V54.95H109.603V104H111.603ZM110.603 55.95H131.303V53.95H110.603V55.95ZM130.303 54.95V61.07H132.303V54.95H130.303ZM132.052 61.7322C136.362 56.855 142.974 54.33 152.093 54.33V52.33C142.612 52.33 135.364 54.965 130.554 60.4078L132.052 61.7322ZM231.259 56.3L231.659 55.3836L231.659 55.3836L231.259 56.3ZM243.499 65.84L242.688 66.4246L242.692 66.4303L243.499 65.84ZM243.409 93.02L242.604 92.4276L242.602 92.4297L243.409 93.02ZM231.169 102.47L230.769 101.554L230.765 101.555L231.169 102.47ZM196.159 102.47L195.765 103.389L195.774 103.393L196.159 102.47ZM183.019 92.93L182.236 93.5519L182.241 93.5582L182.246 93.5645L183.019 92.93ZM183.019 65.93L182.242 65.3011L182.241 65.3025L183.019 65.93ZM196.069 56.39L196.458 57.3113L196.463 57.3091L196.069 56.39ZM220.369 91.49L219.932 90.5904L219.922 90.5956L220.369 91.49ZM225.409 86.9L226.26 87.4255L226.267 87.4145L225.409 86.9ZM225.409 72.05L224.552 72.5645L224.558 72.5755L225.409 72.05ZM220.369 67.37L219.922 68.2645L219.932 68.2695L220.369 67.37ZM206.779 67.46L207.197 68.3687L207.207 68.3637L206.779 67.46ZM201.289 72.05L200.472 71.4733L200.472 71.4733L201.289 72.05ZM201.289 86.81L200.472 87.3867L200.472 87.3867L201.289 86.81ZM206.779 91.49L206.342 92.3892L206.356 92.3963L206.371 92.4028L206.779 91.49ZM213.709 53.88C220.07 53.88 225.781 54.9986 230.859 57.2164L231.659 55.3836C226.297 53.0414 220.308 51.88 213.709 51.88V53.88ZM230.859 57.2164C235.937 59.4344 239.866 62.5086 242.688 66.4246L244.31 65.2554C241.252 61.0114 237.021 57.7256 231.659 55.3836L230.859 57.2164ZM242.692 66.4303C245.505 70.2768 246.909 74.5995 246.909 79.43H248.909C248.909 74.1805 247.373 69.4432 244.306 65.2497L242.692 66.4303ZM246.909 79.43C246.909 84.193 245.48 88.5162 242.604 92.4276L244.215 93.6124C247.339 89.3638 248.909 84.627 248.909 79.43H246.909ZM242.602 92.4297C239.781 96.2874 235.85 99.3341 230.769 101.554L231.569 103.386C236.928 101.046 241.158 97.7926 244.216 93.6103L242.602 92.4297ZM230.765 101.555C225.75 103.771 220.071 104.89 213.709 104.89V106.89C220.308 106.89 226.268 105.729 231.573 103.385L230.765 101.555ZM213.709 104.89C207.594 104.89 201.876 103.773 196.544 101.547L195.774 103.393C201.362 105.727 207.344 106.89 213.709 106.89V104.89ZM196.553 101.551C191.219 99.265 186.977 96.175 183.792 92.2955L182.246 93.5645C185.662 97.725 190.179 100.995 195.765 103.389L196.553 101.551ZM183.802 92.3081C180.694 88.3938 179.159 84.1103 179.159 79.43H177.159C177.159 84.5897 178.864 89.3062 182.236 93.5519L183.802 92.3081ZM179.159 79.43C179.159 74.6872 180.695 70.4068 183.798 66.5575L182.241 65.3025C178.863 69.4932 177.159 74.2128 177.159 79.43H179.159ZM183.797 66.5589C186.982 62.6212 191.192 59.5349 196.458 57.3112L195.68 55.4687C190.147 57.8051 185.657 61.0788 182.242 65.3011L183.797 66.5589ZM196.463 57.3091C201.791 55.0257 207.536 53.88 213.709 53.88V51.88C207.282 51.88 201.267 53.0743 195.675 55.4709L196.463 57.3091ZM213.709 94.02C216.256 94.02 218.63 93.4775 220.816 92.3844L219.922 90.5956C218.028 91.5425 215.962 92.02 213.709 92.02V94.02ZM220.806 92.3895C223.082 91.2843 224.903 89.6223 226.26 87.4255L224.558 86.3745C223.395 88.2577 221.857 89.6557 219.932 90.5905L220.806 92.3895ZM226.267 87.4145C227.635 85.1336 228.299 82.459 228.299 79.43H226.299C226.299 82.161 225.703 84.4664 224.552 86.3855L226.267 87.4145ZM228.299 79.43C228.299 76.402 227.636 73.7516 226.26 71.5245L224.558 72.5755C225.703 74.4284 226.299 76.698 226.299 79.43H228.299ZM226.267 71.5355C224.912 69.2777 223.089 67.5796 220.806 66.4705L219.932 68.2695C221.849 69.2004 223.386 70.6223 224.552 72.5645L226.267 71.5355ZM220.816 66.4756C218.63 65.3825 216.256 64.84 213.709 64.84V66.84C215.962 66.84 218.028 67.3175 219.922 68.2644L220.816 66.4756ZM213.709 64.84C211.21 64.84 208.754 65.4179 206.351 66.5563L207.207 68.3637C209.364 67.3421 211.529 66.84 213.709 66.84V64.84ZM206.362 66.5513C203.978 67.6466 202.011 69.2927 200.472 71.4733L202.106 72.6267C203.447 70.7273 205.14 69.3134 207.197 68.3687L206.362 66.5513ZM200.472 71.4733C198.896 73.7069 198.129 76.3762 198.129 79.43H200.129C200.129 76.7238 200.803 74.4731 202.106 72.6267L200.472 71.4733ZM198.129 79.43C198.129 82.4838 198.896 85.1531 200.472 87.3867L202.106 86.2333C200.803 84.3869 200.129 82.1362 200.129 79.43H198.129ZM200.472 87.3867C202.008 89.5628 203.968 91.2346 206.342 92.3892L207.217 90.5908C205.15 89.5854 203.45 88.1372 202.106 86.2333L200.472 87.3867ZM206.371 92.4028C208.77 93.4764 211.219 94.02 213.709 94.02V92.02C211.519 92.02 209.348 91.5436 207.188 90.5772L206.371 92.4028ZM345.908 56.3L345.349 57.1295L345.357 57.1346L345.908 56.3ZM352.568 65.93L351.617 66.2385L351.618 66.2423L352.568 65.93ZM354.728 104V105H355.728V104H354.728ZM334.028 104H333.028V105H334.028V104ZM333.308 74.84L332.322 75.0044L332.323 75.0158L332.326 75.0271L333.308 74.84ZM330.338 68.63L329.604 69.3094L329.611 69.3166L329.618 69.3236L330.338 68.63ZM316.928 68.63L316.194 67.9506L316.193 67.9517L316.928 68.63ZM314.048 74.66L313.066 74.4685L313.065 74.478L313.063 74.4876L314.048 74.66ZM313.418 104V105H314.418V104H313.418ZM292.718 104H291.718V105H292.718V104ZM292.088 74.84L291.102 75.0044L291.102 75.0083L292.088 74.84ZM289.208 68.63L288.474 69.3094L288.474 69.3094L289.208 68.63ZM275.438 68.63L276.172 69.3094L276.172 69.3094L275.438 68.63ZM272.558 74.93L271.571 74.7693L271.569 74.7789L271.568 74.7886L272.558 74.93ZM272.018 104V105H273.018V104H272.018ZM251.228 104H250.228V105H251.228V104ZM251.228 54.95V53.95H250.228V54.95H251.228ZM269.768 54.95L270.735 54.697L270.54 53.95H269.768V54.95ZM271.298 60.8L270.33 61.053L270.805 62.8678L272.047 61.4622L271.298 60.8ZM280.028 55.13L279.712 54.1813L279.707 54.1829L280.028 55.13ZM310.358 63.68L309.438 64.0721L310.238 65.9491L311.231 64.1669L310.358 63.68ZM334.208 54.33C338.941 54.33 342.625 55.2949 345.349 57.1294L346.467 55.4706C343.311 53.3451 339.195 52.33 334.208 52.33V54.33ZM345.357 57.1346C348.118 58.9566 350.226 61.9492 351.617 66.2385L353.519 65.6215C352.03 61.0308 349.698 57.6034 346.459 55.4654L345.357 57.1346ZM351.618 66.2423C353.011 70.4784 353.728 76.2984 353.728 83.75H355.728C355.728 76.2016 355.005 70.1416 353.518 65.6177L351.618 66.2423ZM353.728 83.75V104H355.728V83.75H353.728ZM354.728 103H334.028V105H354.728V103ZM335.028 104V84.02H333.028V104H335.028ZM335.028 84.02C335.028 80.3802 334.786 77.2537 334.29 74.6529L332.326 75.0271C332.79 77.4663 333.028 80.4598 333.028 84.02H335.028ZM334.294 74.6756C333.846 71.9844 332.777 69.7211 331.058 67.9364L329.618 69.3236C331.019 70.7789 331.93 72.6556 332.322 75.0044L334.294 74.6756ZM331.072 67.9506C329.322 66.0608 326.763 65.2 323.588 65.2V67.2C326.413 67.2 328.354 67.9592 329.604 69.3094L331.072 67.9506ZM323.588 65.2C320.466 65.2 317.94 66.0647 316.194 67.9506L317.662 69.3094C318.915 67.9553 320.83 67.2 323.588 67.2V65.2ZM316.193 67.9517C314.606 69.6709 313.575 71.8598 313.066 74.4685L315.029 74.8515C315.48 72.5402 316.37 70.7091 317.663 69.3083L316.193 67.9517ZM313.063 74.4876C312.629 76.9652 312.418 80.0579 312.418 83.75H314.418C314.418 80.1221 314.627 77.1548 315.033 74.8324L313.063 74.4876ZM312.418 83.75V104H314.418V83.75H312.418ZM313.418 103H292.718V105H313.418V103ZM293.718 104V84.02H291.718V104H293.718ZM293.718 84.02C293.718 80.3271 293.506 77.2064 293.074 74.6717L291.102 75.0083C291.509 77.3936 291.718 80.3929 291.718 84.02H293.718ZM293.074 74.6756C292.627 71.994 291.594 69.7354 289.942 67.9506L288.474 69.3094C289.822 70.7646 290.708 72.646 291.102 75.0044L293.074 74.6756ZM289.942 67.9506C288.192 66.0608 285.633 65.2 282.458 65.2V67.2C285.283 67.2 287.224 67.9592 288.474 69.3094L289.942 67.9506ZM282.458 65.2C279.124 65.2 276.464 66.0498 274.704 67.9506L276.172 69.3094C277.412 67.9702 279.432 67.2 282.458 67.2V65.2ZM274.704 67.9506C273.048 69.7397 272.017 72.0316 271.571 74.7693L273.545 75.0907C273.939 72.6684 274.828 70.7603 276.172 69.3094L274.704 67.9506ZM271.568 74.7886C271.198 77.3761 271.018 80.8196 271.018 85.1H273.018C273.018 80.8604 273.198 77.5239 273.548 75.0714L271.568 74.7886ZM271.018 85.1V104H273.018V85.1H271.018ZM272.018 103H251.228V105H272.018V103ZM252.228 104V54.95H250.228V104H252.228ZM251.228 55.95H269.768V53.95H251.228V55.95ZM268.8 55.203L270.33 61.053L272.265 60.547L270.735 54.697L268.8 55.203ZM272.047 61.4622C274.202 59.0239 276.96 57.226 280.349 56.0771L279.707 54.1829C276.016 55.434 272.954 57.4161 270.549 60.1378L272.047 61.4622ZM280.344 56.0787C283.815 54.9217 288.022 54.33 292.988 54.33V52.33C287.873 52.33 283.441 52.9382 279.712 54.1813L280.344 56.0787ZM292.988 54.33C297.251 54.33 300.665 55.1193 303.29 56.6271L304.286 54.8929C301.271 53.1607 297.484 52.33 292.988 52.33V54.33ZM303.29 56.6271C305.882 58.1164 307.944 60.5664 309.438 64.0721L311.278 63.2879C309.652 59.4736 307.333 56.6435 304.286 54.8929L303.29 56.6271ZM311.231 64.1669C313.163 60.7006 315.933 58.2141 319.567 56.6814L318.789 54.8386C314.742 56.5458 311.632 59.3394 309.484 63.1931L311.231 64.1669ZM319.567 56.6814C323.239 55.132 328.103 54.33 334.208 54.33V52.33C327.953 52.33 322.797 53.148 318.789 54.8386L319.567 56.6814ZM415.133 57.11L415.521 56.1884L415.521 56.1884L415.133 57.11ZM425.393 104V105H426.393V104H425.393ZM405.773 104L404.801 104.233L404.985 105H405.773V104ZM404.243 97.61H403.243V97.728L403.271 97.8429L404.243 97.61ZM404.243 97.16H405.243V93.3009L403.369 96.6744L404.243 97.16ZM394.703 103.1L394.452 102.132L394.449 102.133L394.703 103.1ZM365.273 102.02L364.865 102.933L364.875 102.937L365.273 102.02ZM396.143 73.94L396.179 74.9394L396.188 74.939L396.197 74.9386L396.143 73.94ZM402.803 73.04L403.166 73.972L403.188 73.9634L403.21 73.9538L402.803 73.04ZM404.513 70.52L405.512 70.5699L405.513 70.545V70.52H404.513ZM404.513 69.35H405.513V69.3349L405.513 69.3197L404.513 69.35ZM400.553 65.03L400.197 65.9645L400.211 65.9695L400.224 65.9742L400.553 65.03ZM391.913 63.59V62.59H391.904L391.896 62.5902L391.913 63.59ZM383.273 65.48L382.826 64.5855L382.817 64.5902L383.273 65.48ZM379.763 70.97V71.97H380.763V70.97H379.763ZM358.973 70.97H357.973V71.97H358.973V70.97ZM364.373 60.08L364.973 60.88L364.982 60.8736L364.373 60.08ZM377.243 54.41L377.444 55.3897L377.453 55.3878L377.243 54.41ZM400.733 88.88L400.078 88.125L400.078 88.125L400.733 88.88ZM404.423 81.32L405.422 81.3787L405.423 81.3494V81.32H404.423ZM404.423 80.06H405.423V78.5539L404.035 79.1384L404.423 80.06ZM382.643 82.58L382.319 81.634L382.311 81.637L382.643 82.58ZM379.493 86.54L378.494 86.5088L378.492 86.5743L378.498 86.6395L379.493 86.54ZM382.283 90.59L381.811 91.4715L381.83 91.4814L381.849 91.4906L382.283 90.59ZM392.003 53.79C400.471 53.79 408.046 55.2108 414.745 58.0316L415.521 56.1884C408.541 53.2492 400.696 51.79 392.003 51.79V53.79ZM414.745 58.0316C418.025 59.4125 420.419 61.2893 421.999 63.6317C423.578 65.9726 424.393 68.8513 424.393 72.32H426.393C426.393 68.5287 425.498 65.2424 423.657 62.5133C421.817 59.7857 419.082 57.6875 415.521 56.1884L414.745 58.0316ZM424.393 72.32V104H426.393V72.32H424.393ZM425.393 103H405.773V105H425.393V103ZM406.746 103.767L405.216 97.3771L403.271 97.8429L404.801 104.233L406.746 103.767ZM405.243 97.61V97.16H403.243V97.61H405.243ZM403.369 96.6744C402.065 99.0215 399.207 100.899 394.452 102.132L394.954 104.068C399.92 102.781 403.422 100.698 405.118 97.6456L403.369 96.6744ZM394.449 102.133C389.744 103.368 384.58 103.99 378.953 103.99V105.99C384.727 105.99 390.063 105.352 394.957 104.067L394.449 102.133ZM378.953 103.99C374.542 103.99 370.117 103.033 365.672 101.103L364.875 102.937C369.549 104.967 374.244 105.99 378.953 105.99V103.99ZM365.682 101.107C363.595 100.173 362.055 98.7558 361.024 96.843C359.984 94.9146 359.433 92.4278 359.433 89.33H357.433C357.433 92.6522 358.023 95.4904 359.263 97.792C360.512 100.109 362.392 101.827 364.865 102.933L365.682 101.107ZM359.433 89.33C359.433 84.4968 361 81.0215 364.013 78.7169C367.078 76.3734 371.793 75.12 378.323 75.12V73.12C371.594 73.12 366.364 74.4016 362.798 77.1281C359.182 79.8935 357.433 84.0232 357.433 89.33H359.433ZM378.323 75.12C386.843 75.12 392.799 75.0601 396.179 74.9394L396.108 72.9406C392.768 73.0599 386.844 73.12 378.323 73.12V75.12ZM396.197 74.9386C397.892 74.8478 399.316 74.7259 400.462 74.571C401.592 74.4183 402.512 74.2261 403.166 73.972L402.441 72.108C402.014 72.2739 401.284 72.4417 400.194 72.589C399.121 72.7341 397.755 72.8522 396.09 72.9414L396.197 74.9386ZM403.21 73.9538C403.892 73.6507 404.462 73.2099 404.868 72.6115C405.274 72.014 405.475 71.319 405.512 70.5699L403.515 70.4701C403.492 70.921 403.378 71.246 403.213 71.4885C403.049 71.7301 402.795 71.9493 402.397 72.1262L403.21 73.9538ZM405.513 70.52V69.35H403.513V70.52H405.513ZM405.513 69.3197C405.476 68.0938 405.04 67.0087 404.216 66.1093C403.408 65.2286 402.27 64.5697 400.883 64.0858L400.224 65.9742C401.417 66.3903 402.229 66.9014 402.741 67.4607C403.237 68.0013 403.491 68.6262 403.514 69.3803L405.513 69.3197ZM400.909 64.0955C398.255 63.0844 395.251 62.59 391.913 62.59V64.59C395.056 64.59 397.811 65.0556 400.197 65.9645L400.909 64.0955ZM391.896 62.5902C388.423 62.6522 385.389 63.3042 382.826 64.5856L383.721 66.3744C385.958 65.2558 388.684 64.6478 391.931 64.5898L391.896 62.5902ZM382.817 64.5902C381.523 65.254 380.497 66.1211 379.798 67.2138C379.097 68.3103 378.763 69.5751 378.763 70.97H380.763C380.763 69.9049 381.014 69.0247 381.483 68.2912C381.955 67.5539 382.684 66.906 383.73 66.3698L382.817 64.5902ZM379.763 69.97H358.973V71.97H379.763V69.97ZM359.973 70.97C359.973 66.7198 361.629 63.3882 364.973 60.88L363.773 59.28C359.918 62.1718 357.973 66.1002 357.973 70.97H359.973ZM364.982 60.8736C368.448 58.2163 372.594 56.383 377.444 55.3897L377.043 53.4303C371.932 54.477 367.499 56.4237 363.765 59.2864L364.982 60.8736ZM377.453 55.3878C382.429 54.3215 387.279 53.79 392.003 53.79V51.79C387.128 51.79 382.138 52.3385 377.034 53.4322L377.453 55.3878ZM390.653 92.85C395.224 92.85 398.858 91.8329 401.389 89.635L400.078 88.125C398.049 89.8871 394.963 90.85 390.653 90.85V92.85ZM401.389 89.635C403.876 87.4755 405.226 84.7029 405.422 81.3787L403.425 81.2613C403.261 84.0571 402.151 86.3245 400.078 88.125L401.389 89.635ZM405.423 81.32V80.06H403.423V81.32H405.423ZM404.035 79.1384C401.949 80.0169 398.488 80.5 393.533 80.5V82.5C398.539 82.5 402.338 82.0231 404.811 80.9816L404.035 79.1384ZM393.533 80.5C388.37 80.5 384.591 80.855 382.319 81.6341L382.968 83.5259C384.895 82.865 388.376 82.5 393.533 82.5V80.5ZM382.311 81.637C381.163 82.0421 380.214 82.6443 379.543 83.4875C378.866 84.339 378.53 85.3647 378.494 86.5088L380.493 86.5712C380.517 85.7953 380.736 85.201 381.108 84.7325C381.488 84.2557 382.084 83.8379 382.976 83.523L382.311 81.637ZM378.498 86.6395C378.714 88.7916 379.856 90.4242 381.811 91.4715L382.756 89.7085C381.35 88.9558 380.633 87.8884 380.488 86.4405L378.498 86.6395ZM381.849 91.4906C383.802 92.4334 386.783 92.85 390.653 92.85V90.85C386.844 90.85 384.245 90.4266 382.718 89.6894L381.849 91.4906ZM476.165 37.4V36.4H475.165V37.4H476.165ZM496.865 37.4H497.865V36.4H496.865V37.4ZM496.865 103.82V104.82H497.865V103.82H496.865ZM477.965 103.82L476.982 104.002L477.133 104.82H477.965V103.82ZM476.885 97.97L477.869 97.7885L477.531 95.9579L476.191 97.2503L476.885 97.97ZM452.945 104.99L452.967 103.99L452.956 103.99H452.945V104.99ZM440.615 101.57L440.064 102.404L440.072 102.41L440.08 102.415L440.615 101.57ZM432.245 92.12L431.354 92.5725L431.356 92.578L432.245 92.12ZM429.095 78.71H428.095L428.095 78.7222L429.095 78.71ZM429.095 78.17L428.096 78.1418L428.095 78.1559V78.17H429.095ZM432.245 66.02L431.357 65.5617L431.357 65.5617L432.245 66.02ZM440.615 56.75L441.16 57.5885L441.17 57.582L440.615 56.75ZM476.165 60.17L475.489 60.9068L477.165 62.4449V60.17H476.165ZM469.865 91.04L470.395 91.888L470.402 91.8837L469.865 91.04ZM474.455 86.09L473.582 85.6022L473.577 85.6121L473.572 85.6221L474.455 86.09ZM472.565 69.17L471.832 69.8505L471.841 69.8597L472.565 69.17ZM453.485 69.35L452.737 68.6867L452.736 68.6878L453.485 69.35ZM449.975 78.62L448.975 78.6033L448.975 78.6189L448.975 78.6345L449.975 78.62ZM453.485 88.88L452.721 89.5252L452.729 89.5336L453.485 88.88ZM476.165 38.4H496.865V36.4H476.165V38.4ZM495.865 37.4V103.82H497.865V37.4H495.865ZM496.865 102.82H477.965V104.82H496.865V102.82ZM478.949 103.638L477.869 97.7885L475.902 98.1515L476.982 104.002L478.949 103.638ZM476.191 97.2503C471.364 101.907 463.7 104.227 452.967 103.99L452.923 105.99C463.91 106.233 472.206 103.873 477.58 98.6897L476.191 97.2503ZM452.945 103.99C448.498 103.99 444.577 102.895 441.15 100.725L440.08 102.415C443.854 104.805 448.152 105.99 452.945 105.99V103.99ZM441.167 100.736C437.777 98.495 435.1 95.4776 433.134 91.662L431.356 92.578C433.471 96.6824 436.374 99.965 440.064 102.404L441.167 100.736ZM433.137 91.6675C431.173 87.7962 430.154 83.4789 430.095 78.6978L428.095 78.7222C428.157 83.7811 429.238 88.4038 431.354 92.5725L433.137 91.6675ZM430.095 78.71V78.44H428.095V78.71H430.095ZM430.095 78.44V78.17H428.095V78.44H430.095ZM430.095 78.1982C430.211 74.0902 431.222 70.1869 433.134 66.4783L431.357 65.5617C429.309 69.5331 428.22 73.7298 428.096 78.1418L430.095 78.1982ZM433.134 66.4783C435.035 62.7917 437.707 59.8331 441.16 57.5884L440.07 55.9116C436.324 58.3469 433.416 61.5683 431.357 65.5617L433.134 66.4783ZM441.17 57.582C444.594 55.2991 448.509 54.15 452.945 54.15V52.15C448.142 52.15 443.836 53.4009 440.061 55.9179L441.17 57.582ZM452.945 54.15C463.197 54.15 470.647 56.4636 475.489 60.9068L476.841 59.4332C471.483 54.5164 463.454 52.15 452.945 52.15V54.15ZM477.165 60.17V37.4H475.165V60.17H477.165ZM463.385 93.84C465.961 93.84 468.307 93.1934 470.395 91.888L469.335 90.192C467.584 91.2866 465.61 91.84 463.385 91.84V93.84ZM470.402 91.8837C472.526 90.5322 474.177 88.7538 475.339 86.5579L473.572 85.6221C472.574 87.5062 471.165 89.0278 469.328 90.1963L470.402 91.8837ZM475.328 86.5778C476.552 84.3885 477.165 82.0306 477.165 79.52H475.165C475.165 81.6894 474.639 83.7115 473.582 85.6022L475.328 86.5778ZM477.165 79.52V79.25H475.165V79.52H477.165ZM477.165 79.25C477.165 74.8496 475.902 71.2234 473.289 68.4803L471.841 69.8597C474.029 72.1566 475.165 75.2504 475.165 79.25H477.165ZM473.298 68.4895C470.749 65.7443 467.413 64.39 463.385 64.39V66.39C466.918 66.39 469.702 67.5557 471.833 69.8504L473.298 68.4895ZM463.385 64.39C458.904 64.39 455.306 65.7885 452.737 68.6867L454.234 70.0133C456.345 67.6315 459.347 66.39 463.385 66.39V64.39ZM452.736 68.6878C450.291 71.455 449.039 74.777 448.975 78.6033L450.975 78.6367C451.031 75.263 452.12 72.405 454.235 70.0122L452.736 68.6878ZM448.975 78.6345C449.038 82.9641 450.267 86.6192 452.721 89.5252L454.249 88.2348C452.143 85.7408 451.032 82.5559 450.975 78.6055L448.975 78.6345ZM452.729 89.5336C455.243 92.4447 458.85 93.84 463.385 93.84V91.84C459.281 91.84 456.288 90.5953 454.242 88.2264L452.729 89.5336ZM499.38 118.22H498.38V119.22H499.38V118.22ZM499.38 105.89V104.89H498.38V105.89H499.38ZM562.38 105.89H563.38V104.89H562.38V105.89ZM562.38 118.22V119.22H563.38V118.22H562.38ZM500.38 118.22V105.89H498.38V118.22H500.38ZM499.38 106.89H562.38V104.89H499.38V106.89ZM561.38 105.89V118.22H563.38V105.89H561.38ZM562.38 117.22H499.38V119.22H562.38V117.22ZM632.68 80.6L633.679 80.6282L633.68 80.6141V80.6H632.68ZM629.44 92.75L628.556 92.2808L628.551 92.2917L629.44 92.75ZM621.07 102.11L621.615 102.949L621.624 102.942L621.07 102.11ZM585.61 98.6L586.286 97.8632L584.61 96.3251V98.6H585.61ZM585.61 121.1V122.1H586.61V121.1H585.61ZM564.91 121.1H563.91V122.1H564.91V121.1ZM564.91 54.95V53.95H563.91V54.95H564.91ZM583.9 54.95L584.883 54.7674L584.731 53.95H583.9V54.95ZM585.07 61.25L584.086 61.4326L584.438 63.3275L585.785 61.9487L585.07 61.25ZM608.83 53.87L608.807 54.8697L608.818 54.87H608.83V53.87ZM621.07 57.29L620.528 58.1307L620.535 58.1348L621.07 57.29ZM629.53 66.65L628.641 67.108L628.641 67.108L629.53 66.65ZM632.68 79.97H633.68L633.679 79.9578L632.68 79.97ZM608.2 89.51L607.451 88.8467L607.45 88.8478L608.2 89.51ZM611.89 80.15L612.889 80.1833L612.89 80.1522L612.889 80.121L611.89 80.15ZM608.29 69.98L607.517 70.6151L607.525 70.6245L607.533 70.6336L608.29 69.98ZM591.82 67.82L592.35 68.668L592.356 68.6637L591.82 67.82ZM587.23 72.77L586.351 72.2929L586.346 72.3021L587.23 72.77ZM589.12 89.6L588.387 90.2805L588.395 90.2897L589.12 89.6ZM631.68 80.5718C631.564 84.6746 630.526 88.574 628.556 92.2808L630.323 93.2192C632.433 89.246 633.555 85.0454 633.679 80.6282L631.68 80.5718ZM628.551 92.2917C626.649 95.9805 623.974 98.972 620.515 101.278L621.624 102.942C625.365 100.448 628.27 97.1995 630.328 93.2083L628.551 92.2917ZM620.525 101.272C617.097 103.499 613.209 104.62 608.83 104.62V106.62C613.57 106.62 617.842 105.401 621.615 102.948L620.525 101.272ZM608.83 104.62C598.578 104.62 591.128 102.306 586.286 97.8632L584.933 99.3368C590.292 104.254 598.321 106.62 608.83 106.62V104.62ZM584.61 98.6V121.1H586.61V98.6H584.61ZM585.61 120.1H564.91V122.1H585.61V120.1ZM565.91 121.1V54.95H563.91V121.1H565.91ZM564.91 55.95H583.9V53.95H564.91V55.95ZM582.916 55.1326L584.086 61.4326L586.053 61.0674L584.883 54.7674L582.916 55.1326ZM585.785 61.9487C590.553 57.0676 598.147 54.6328 608.807 54.8697L608.852 52.8702C597.913 52.6271 589.667 55.1124 584.354 60.5513L585.785 61.9487ZM608.83 54.87C613.277 54.87 617.165 55.9647 620.528 58.1307L621.611 56.4493C617.894 54.0553 613.622 52.87 608.83 52.87V54.87ZM620.535 58.1348C623.977 60.3152 626.678 63.2986 628.641 67.108L630.419 66.192C628.301 62.0814 625.362 58.8248 621.605 56.4452L620.535 58.1348ZM628.641 67.108C630.602 70.9161 631.621 75.2009 631.68 79.9822L633.679 79.9578C633.618 74.8991 632.537 70.3039 630.419 66.192L628.641 67.108ZM631.68 79.97V80.24H633.68V79.97H631.68ZM631.68 80.24V80.6H633.68V80.24H631.68ZM598.48 94.38C602.898 94.38 606.438 93.0134 608.949 90.1722L607.45 88.8478C605.401 91.1665 602.461 92.38 598.48 92.38V94.38ZM608.948 90.1733C611.446 87.355 612.761 84.0108 612.889 80.1833L610.89 80.1167C610.778 83.4892 609.633 86.385 607.451 88.8467L608.948 90.1733ZM612.889 80.121C612.764 75.796 611.504 72.1717 609.046 69.3264L607.533 70.6336C609.635 73.0683 610.775 76.224 610.89 80.179L612.889 80.121ZM609.062 69.3449C606.608 66.3602 603.021 64.93 598.48 64.93V66.93C602.578 66.93 605.531 68.1998 607.517 70.6151L609.062 69.3449ZM598.48 64.93C595.839 64.93 593.431 65.6092 591.283 66.9763L592.356 68.6637C594.168 67.5108 596.2 66.93 598.48 66.93V64.93ZM591.29 66.972C589.215 68.2686 587.568 70.0499 586.351 72.2929L588.108 73.2471C589.171 71.29 590.584 69.7714 592.35 68.668L591.29 66.972ZM586.346 72.3021C585.188 74.4883 584.61 76.8392 584.61 79.34H586.61C586.61 77.1608 587.111 75.1317 588.113 73.2379L586.346 72.3021ZM584.61 79.34V79.52H586.61V79.34H584.61ZM584.61 79.52C584.61 83.9136 585.839 87.5365 588.387 90.2805L589.852 88.9195C587.72 86.6235 586.61 83.5264 586.61 79.52H584.61ZM588.395 90.2897C591.005 93.0294 594.397 94.38 598.48 94.38V92.38C594.882 92.38 592.034 91.2106 589.844 88.9103L588.395 90.2897ZM657.06 63.5L656.08 63.6961L656.468 65.638L657.8 64.1727L657.06 63.5ZM679.83 53.96H680.83V52.8506L679.727 52.9654L679.83 53.96ZM679.83 69.62V70.62H680.83V69.62H679.83ZM659.76 73.85L660.615 74.37L660.62 74.3618L659.76 73.85ZM657.24 104V105H658.24V104H657.24ZM636.54 104H635.54V105H636.54V104ZM636.54 54.95V53.95H635.54V54.95H636.54ZM655.35 54.95L656.331 54.7539L656.17 53.95H655.35V54.95ZM657.8 64.1727C662.373 59.143 669.687 56.0207 679.934 54.9546L679.727 52.9654C669.213 54.0593 661.348 57.297 656.321 62.8273L657.8 64.1727ZM678.83 53.96V69.62H680.83V53.96H678.83ZM679.83 68.62H667.86V70.62H679.83V68.62ZM667.86 68.62C663.844 68.62 660.789 70.1702 658.901 73.3382L660.62 74.3618C662.092 71.8898 664.437 70.62 667.86 70.62V68.62ZM658.906 73.3301C657.1 76.2966 656.24 80.1255 656.24 84.74H658.24C658.24 80.3545 659.06 76.9234 660.615 74.3699L658.906 73.3301ZM656.24 84.74V104H658.24V84.74H656.24ZM657.24 103H636.54V105H657.24V103ZM637.54 104V54.95H635.54V104H637.54ZM636.54 55.95H655.35V53.95H636.54V55.95ZM654.37 55.1461L656.08 63.6961L658.041 63.3039L656.331 54.7539L654.37 55.1461ZM735.839 56.3L736.24 55.3836L736.24 55.3836L735.839 56.3ZM748.079 65.84L747.268 66.4246L747.272 66.4303L748.079 65.84ZM747.989 93.02L747.184 92.4276L747.182 92.4297L747.989 93.02ZM735.749 102.47L735.349 101.554L735.345 101.555L735.749 102.47ZM700.739 102.47L700.345 103.389L700.354 103.393L700.739 102.47ZM687.599 92.93L686.816 93.5519L686.821 93.5582L686.826 93.5645L687.599 92.93ZM687.599 65.93L686.822 65.3011L686.821 65.3025L687.599 65.93ZM700.649 56.39L701.038 57.3113L701.043 57.3091L700.649 56.39ZM724.949 91.49L724.512 90.5904L724.502 90.5956L724.949 91.49ZM729.989 86.9L730.84 87.4255L730.847 87.4145L729.989 86.9ZM729.989 72.05L729.132 72.5645L729.138 72.5755L729.989 72.05ZM724.949 67.37L724.502 68.2645L724.512 68.2695L724.949 67.37ZM711.359 67.46L711.777 68.3687L711.787 68.3637L711.359 67.46ZM705.869 72.05L705.052 71.4733L705.052 71.4733L705.869 72.05ZM705.869 86.81L705.052 87.3867L705.052 87.3867L705.869 86.81ZM711.359 91.49L710.922 92.3892L710.936 92.3963L710.951 92.4028L711.359 91.49ZM718.289 53.88C724.65 53.88 730.361 54.9986 735.439 57.2164L736.24 55.3836C730.877 53.0414 724.888 51.88 718.289 51.88V53.88ZM735.439 57.2164C740.517 59.4344 744.446 62.5086 747.268 66.4246L748.891 65.2554C745.832 61.0114 741.602 57.7256 736.24 55.3836L735.439 57.2164ZM747.272 66.4303C750.085 70.2768 751.489 74.5995 751.489 79.43H753.489C753.489 74.1805 751.953 69.4432 748.886 65.2497L747.272 66.4303ZM751.489 79.43C751.489 84.193 750.06 88.5162 747.184 92.4276L748.795 93.6124C751.919 89.3638 753.489 84.627 753.489 79.43H751.489ZM747.182 92.4297C744.361 96.2874 740.431 99.3341 735.349 101.554L736.15 103.386C741.508 101.046 745.738 97.7926 748.796 93.6103L747.182 92.4297ZM735.345 101.555C730.33 103.771 724.651 104.89 718.289 104.89V106.89C724.888 106.89 730.849 105.729 736.153 103.385L735.345 101.555ZM718.289 104.89C712.174 104.89 706.456 103.773 701.125 101.547L700.354 103.393C705.943 105.727 711.924 106.89 718.289 106.89V104.89ZM701.133 101.551C695.799 99.265 691.557 96.175 688.372 92.2955L686.826 93.5645C690.242 97.725 694.759 100.995 700.345 103.389L701.133 101.551ZM688.382 92.3081C685.274 88.3938 683.739 84.1103 683.739 79.43H681.739C681.739 84.5897 683.445 89.3062 686.816 93.5519L688.382 92.3081ZM683.739 79.43C683.739 74.6872 685.275 70.4068 688.378 66.5575L686.821 65.3025C683.443 69.4932 681.739 74.2128 681.739 79.43H683.739ZM688.377 66.5589C691.562 62.6212 695.772 59.5349 701.038 57.3112L700.26 55.4687C694.727 57.8051 690.237 61.0788 686.822 65.3011L688.377 66.5589ZM701.043 57.3091C706.371 55.0257 712.116 53.88 718.289 53.88V51.88C711.862 51.88 705.847 53.0743 700.255 55.4709L701.043 57.3091ZM718.289 94.02C720.836 94.02 723.21 93.4775 725.396 92.3844L724.502 90.5956C722.608 91.5425 720.542 92.02 718.289 92.02V94.02ZM725.386 92.3895C727.662 91.2843 729.483 89.6223 730.84 87.4255L729.138 86.3745C727.975 88.2577 726.437 89.6557 724.512 90.5905L725.386 92.3895ZM730.847 87.4145C732.215 85.1336 732.879 82.459 732.879 79.43H730.879C730.879 82.161 730.283 84.4664 729.132 86.3855L730.847 87.4145ZM732.879 79.43C732.879 76.402 732.216 73.7516 730.84 71.5245L729.138 72.5755C730.283 74.4284 730.879 76.698 730.879 79.43H732.879ZM730.847 71.5355C729.492 69.2777 727.67 67.5796 725.386 66.4705L724.512 68.2695C726.429 69.2004 727.966 70.6223 729.132 72.5645L730.847 71.5355ZM725.396 66.4756C723.21 65.3825 720.836 64.84 718.289 64.84V66.84C720.542 66.84 722.608 67.3175 724.502 68.2644L725.396 66.4756ZM718.289 64.84C715.79 64.84 713.334 65.4179 710.931 66.5563L711.787 68.3637C713.944 67.3421 716.109 66.84 718.289 66.84V64.84ZM710.942 66.5513C708.558 67.6466 706.592 69.2927 705.052 71.4733L706.686 72.6267C708.027 70.7273 709.721 69.3134 711.777 68.3687L710.942 66.5513ZM705.052 71.4733C703.476 73.7069 702.709 76.3762 702.709 79.43H704.709C704.709 76.7238 705.383 74.4731 706.686 72.6267L705.052 71.4733ZM702.709 79.43C702.709 82.4838 703.476 85.1531 705.052 87.3867L706.686 86.2333C705.383 84.3869 704.709 82.1362 704.709 79.43H702.709ZM705.052 87.3867C706.588 89.5628 708.548 91.2346 710.922 92.3892L711.797 90.5908C709.73 89.5854 708.03 88.1372 706.686 86.2333L705.052 87.3867ZM710.951 92.4028C713.351 93.4764 715.799 94.02 718.289 94.02V92.02C716.099 92.02 713.928 91.5436 711.768 90.5772L710.951 92.4028ZM797.37 54.95V53.95H796.929L796.631 54.2762L797.37 54.95ZM820.86 54.95L821.606 55.6167L823.097 53.95H820.86V54.95ZM798.72 79.7L797.975 79.0333L797.373 79.7061L797.981 80.3735L798.72 79.7ZM820.86 104V105H823.124L821.6 103.327L820.86 104ZM797.37 104L796.633 104.676L796.931 105H797.37V104ZM783.42 88.79L784.157 88.1141L783.423 87.3131L782.686 88.1117L783.42 88.79ZM769.38 104V105H769.818L770.115 104.678L769.38 104ZM745.89 104L745.153 103.325L743.62 105H745.89V104ZM768.12 79.7L768.858 80.375L769.47 79.7062L768.864 79.0318L768.12 79.7ZM745.89 54.95V53.95H743.648L745.146 55.6182L745.89 54.95ZM769.38 54.95L770.117 54.2739L769.82 53.95H769.38V54.95ZM783.42 70.25L782.684 70.9261L783.423 71.7316L784.159 70.9238L783.42 70.25ZM797.37 55.95H820.86V53.95H797.37V55.95ZM820.115 54.2833L797.975 79.0333L799.466 80.3667L821.606 55.6167L820.115 54.2833ZM797.981 80.3735L820.121 104.673L821.6 103.327L799.46 79.0265L797.981 80.3735ZM820.86 103H797.37V105H820.86V103ZM798.107 103.324L784.157 88.1141L782.683 89.4659L796.633 104.676L798.107 103.324ZM782.686 88.1117L768.646 103.322L770.115 104.678L784.155 89.4683L782.686 88.1117ZM769.38 103H745.89V105H769.38V103ZM746.628 104.675L768.858 80.375L767.383 79.025L745.153 103.325L746.628 104.675ZM768.864 79.0318L746.634 54.2818L745.146 55.6182L767.376 80.3682L768.864 79.0318ZM745.89 55.95H769.38V53.95H745.89V55.95ZM768.644 55.6261L782.684 70.9261L784.157 69.5739L770.117 54.2739L768.644 55.6261ZM784.159 70.9238L798.109 55.6238L796.631 54.2762L782.681 69.5762L784.159 70.9238ZM898.297 54.95L899.19 55.3994L899.919 53.95H898.297V54.95ZM868.057 115.07L867.164 114.621L867.163 114.623L868.057 115.07ZM856.537 122.72L856.341 121.739L856.339 121.74L856.537 122.72ZM837.457 124.43H836.457V125.43H837.457V124.43ZM837.457 107.96V106.96H836.457V107.96H837.457ZM844.567 107.33L844.87 108.283L844.87 108.283L844.567 107.33ZM846.187 104.27L847.115 103.899L847.098 103.855L847.077 103.814L846.187 104.27ZM820.897 54.95V53.95H819.26L820.007 55.4063L820.897 54.95ZM843.037 54.95L843.945 54.5309L843.677 53.95H843.037V54.95ZM859.777 91.22L858.869 91.6391L859.787 93.6277L860.688 91.6316L859.777 91.22ZM876.157 54.95V53.95H875.511L875.246 54.5384L876.157 54.95ZM897.404 54.5006L867.164 114.621L868.95 115.519L899.19 55.3994L897.404 54.5006ZM867.163 114.623C865.361 118.225 861.841 120.639 856.341 121.739L856.733 123.701C862.633 122.521 866.793 119.835 868.951 115.517L867.163 114.623ZM856.339 121.74C850.777 122.864 844.485 123.43 837.457 123.43V125.43C844.589 125.43 851.017 124.856 856.735 123.7L856.339 121.74ZM838.457 124.43V107.96H836.457V124.43H838.457ZM837.457 108.96C840.873 108.96 843.386 108.755 844.87 108.283L844.264 106.377C843.108 106.745 840.881 106.96 837.457 106.96V108.96ZM844.87 108.283C846.246 107.845 847.547 107.03 847.547 105.53H845.547C845.547 105.597 845.534 105.685 845.379 105.825C845.198 105.99 844.855 106.189 844.264 106.377L844.87 108.283ZM847.547 105.53C847.547 105.27 847.487 104.999 847.419 104.76C847.346 104.506 847.243 104.217 847.115 103.899L845.259 104.641C845.371 104.923 845.448 105.144 845.495 105.31C845.547 105.491 845.547 105.55 845.547 105.53H847.547ZM847.077 103.814L821.787 54.4937L820.007 55.4063L845.297 104.726L847.077 103.814ZM820.897 55.95H843.037V53.95H820.897V55.95ZM842.129 55.3691L858.869 91.6391L860.685 90.8009L843.945 54.5309L842.129 55.3691ZM860.688 91.6316L877.068 55.3616L875.246 54.5384L858.866 90.8084L860.688 91.6316ZM876.157 55.95H898.297V53.95H876.157V55.95Z" fill="#0094FF" mask="url(#path-2-outside-1_1995_20)"/>
</svg>
